G04*
G04 #@! TF.GenerationSoftware,Altium Limited,Altium NEXUS,2.0.14 (187)*
G04*
G04 Layer_Color=65535*
%FSLAX44Y44*%
%MOMM*%
G71*
G01*
G75*
%ADD10C,0.3000*%
%ADD11C,0.2500*%
%ADD12C,0.5080*%
%ADD13C,0.2000*%
%ADD14C,0.1500*%
%ADD15C,0.1524*%
%ADD16C,0.1000*%
%ADD17C,0.2032*%
%ADD18C,0.1270*%
%ADD19C,0.2540*%
D10*
X974250Y820500D02*
G03*
X974250Y820500I-1000J0D01*
G01*
X110250Y87750D02*
G03*
X110250Y87750I-1000J0D01*
G01*
X346749Y743995D02*
Y733998D01*
X351748Y729000D01*
X356746Y733998D01*
Y743995D01*
X361744D02*
X366743D01*
X364243D01*
Y729000D01*
X361744D01*
X366743D01*
X374240Y743995D02*
Y729000D01*
X381738D01*
X384237Y731499D01*
Y741496D01*
X381738Y743995D01*
X374240D01*
X399232D02*
X389235D01*
Y729000D01*
X399232D01*
X389235Y736498D02*
X394234D01*
X411728Y743995D02*
X406730D01*
X404230Y741496D01*
Y731499D01*
X406730Y729000D01*
X411728D01*
X414227Y731499D01*
Y741496D01*
X411728Y743995D01*
X1005250Y598250D02*
Y608247D01*
X1007749D01*
X1010248Y605748D01*
Y598250D01*
Y605748D01*
X1012748Y608247D01*
X1015247Y605748D01*
Y598250D01*
X1030242D02*
X1020245D01*
X1030242Y608247D01*
Y610746D01*
X1027743Y613245D01*
X1022744D01*
X1020245Y610746D01*
X1035240Y598250D02*
Y608247D01*
X1037739D01*
X1040239Y605748D01*
Y598250D01*
Y605748D01*
X1042738Y608247D01*
X1045237Y605748D01*
Y598250D01*
X1050235Y605748D02*
X1060232D01*
X1067730Y610746D02*
Y608247D01*
X1065231D01*
X1070229D01*
X1067730D01*
Y600749D01*
X1070229Y598250D01*
X1085224D02*
X1080226D01*
X1077727Y600749D01*
Y605748D01*
X1080226Y608247D01*
X1085224D01*
X1087723Y605748D01*
Y603248D01*
X1077727D01*
X1092722Y598250D02*
X1097720D01*
X1095221D01*
Y613245D01*
X1092722D01*
X1112715Y598250D02*
X1107717D01*
X1105218Y600749D01*
Y605748D01*
X1107717Y608247D01*
X1112715D01*
X1115214Y605748D01*
Y603248D01*
X1105218D01*
X1120213Y598250D02*
Y600749D01*
X1122712D01*
Y598250D01*
X1120213D01*
X1142706Y608247D02*
X1135208D01*
X1132709Y605748D01*
Y600749D01*
X1135208Y598250D01*
X1142706D01*
X1150203D02*
X1155201D01*
X1157701Y600749D01*
Y605748D01*
X1155201Y608247D01*
X1150203D01*
X1147704Y605748D01*
Y600749D01*
X1150203Y598250D01*
X1162699D02*
Y608247D01*
X1165198D01*
X1167697Y605748D01*
Y598250D01*
Y605748D01*
X1170197Y608247D01*
X1172696Y605748D01*
Y598250D01*
X1026000Y649500D02*
Y664495D01*
X1035997Y649500D01*
Y664495D01*
X1048493Y649500D02*
X1043494D01*
X1040995Y651999D01*
Y656998D01*
X1043494Y659497D01*
X1048493D01*
X1050992Y656998D01*
Y654498D01*
X1040995D01*
X1058490Y661996D02*
Y659497D01*
X1055990D01*
X1060989D01*
X1058490D01*
Y651999D01*
X1060989Y649500D01*
X1078483Y661996D02*
X1075984Y664495D01*
X1070985D01*
X1068486Y661996D01*
Y659497D01*
X1070985Y656998D01*
X1075984D01*
X1078483Y654498D01*
Y651999D01*
X1075984Y649500D01*
X1070985D01*
X1068486Y651999D01*
X1085981Y649500D02*
X1090979D01*
X1093478Y651999D01*
Y656998D01*
X1090979Y659497D01*
X1085981D01*
X1083481Y656998D01*
Y651999D01*
X1085981Y649500D01*
X1098476D02*
Y664495D01*
X1103475Y659497D01*
X1108473Y664495D01*
Y649500D01*
X1138464Y664495D02*
X1128467D01*
Y649500D01*
X1138464D01*
X1128467Y656998D02*
X1133465D01*
X1143462Y664495D02*
Y654498D01*
X1148460Y649500D01*
X1153459Y654498D01*
Y664495D01*
X1158457D02*
Y649500D01*
Y654498D01*
X1168454Y664495D01*
X1160956Y656998D01*
X1168454Y649500D01*
X1089247Y623500D02*
X1079250D01*
X1089247Y633497D01*
Y635996D01*
X1086748Y638495D01*
X1081749D01*
X1079250Y635996D01*
X1094245D02*
X1096744Y638495D01*
X1101743D01*
X1104242Y635996D01*
Y625999D01*
X1101743Y623500D01*
X1096744D01*
X1094245Y625999D01*
Y635996D01*
X1119237Y623500D02*
X1109240D01*
X1119237Y633497D01*
Y635996D01*
X1116738Y638495D01*
X1111740D01*
X1109240Y635996D01*
X1124235Y623500D02*
X1129234D01*
X1126735D01*
Y638495D01*
X1124235Y635996D01*
X1136731Y630998D02*
X1146728D01*
X1151727Y635996D02*
X1154226Y638495D01*
X1159224D01*
X1161723Y635996D01*
Y625999D01*
X1159224Y623500D01*
X1154226D01*
X1151727Y625999D01*
Y635996D01*
X1166722D02*
X1169221Y638495D01*
X1174219D01*
X1176718Y635996D01*
Y633497D01*
X1174219Y630998D01*
X1171720D01*
X1174219D01*
X1176718Y628498D01*
Y625999D01*
X1174219Y623500D01*
X1169221D01*
X1166722Y625999D01*
D11*
X886300Y751250D02*
G03*
X886300Y751250I-1250J0D01*
G01*
X91500Y176500D02*
G03*
X91500Y176500I-1250J0D01*
G01*
X532950Y745250D02*
G03*
X532950Y745250I-1250J0D01*
G01*
X118700Y733250D02*
G03*
X118700Y733250I-1250J0D01*
G01*
X767754Y27414D02*
Y18750D01*
X780750D01*
Y27414D01*
X774252Y18750D02*
Y23082D01*
X767754Y31746D02*
Y40410D01*
Y36078D01*
X780750D01*
X767754Y44742D02*
X780750D01*
X774252D01*
Y53405D01*
X767754D01*
X780750D01*
Y66401D02*
Y57737D01*
X772086Y66401D01*
X769920D01*
X767754Y64235D01*
Y59903D01*
X769920Y57737D01*
X829164Y887830D02*
X826998Y889996D01*
X822666D01*
X820500Y887830D01*
Y885664D01*
X822666Y883498D01*
X826998D01*
X829164Y881332D01*
Y879166D01*
X826998Y877000D01*
X822666D01*
X820500Y879166D01*
X833496Y889996D02*
Y877000D01*
X839994D01*
X842160Y879166D01*
Y887830D01*
X839994Y889996D01*
X833496D01*
X846492D02*
Y877000D01*
Y883498D01*
X855155D01*
Y889996D01*
Y877000D01*
X868151Y887830D02*
X865985Y889996D01*
X861653D01*
X859487Y887830D01*
Y879166D01*
X861653Y877000D01*
X865985D01*
X868151Y879166D01*
X872483Y877000D02*
X876815D01*
X874649D01*
Y889996D01*
X872483Y887830D01*
X949004Y27914D02*
Y19250D01*
X962000D01*
Y27914D01*
X955502Y19250D02*
Y23582D01*
X949004Y32246D02*
Y40910D01*
Y36578D01*
X962000D01*
X949004Y45242D02*
X962000D01*
X955502D01*
Y53906D01*
X949004D01*
X962000D01*
Y58237D02*
Y62569D01*
Y60403D01*
X949004D01*
X951170Y58237D01*
X195914Y864830D02*
X193748Y866996D01*
X189416D01*
X187250Y864830D01*
Y856166D01*
X189416Y854000D01*
X193748D01*
X195914Y856166D01*
X200246Y854000D02*
Y862664D01*
X204578Y866996D01*
X208910Y862664D01*
Y854000D01*
Y860498D01*
X200246D01*
X213242Y854000D02*
Y866996D01*
X221905Y854000D01*
Y866996D01*
X234901Y854000D02*
X226237D01*
X234901Y862664D01*
Y864830D01*
X232735Y866996D01*
X228403D01*
X226237Y864830D01*
X467664Y864330D02*
X465498Y866496D01*
X461166D01*
X459000Y864330D01*
Y855666D01*
X461166Y853500D01*
X465498D01*
X467664Y855666D01*
X471996Y853500D02*
Y862164D01*
X476328Y866496D01*
X480660Y862164D01*
Y853500D01*
Y859998D01*
X471996D01*
X484992Y853500D02*
Y866496D01*
X493656Y853500D01*
Y866496D01*
X497987Y853500D02*
X502319D01*
X500153D01*
Y866496D01*
X497987Y864330D01*
X269500Y20250D02*
Y28914D01*
X273832Y33246D01*
X278164Y28914D01*
Y20250D01*
Y26748D01*
X269500D01*
X282496Y33246D02*
Y22416D01*
X284662Y20250D01*
X288994D01*
X291160Y22416D01*
Y33246D01*
X295492D02*
Y20250D01*
X301989D01*
X304156Y22416D01*
Y31080D01*
X301989Y33246D01*
X295492D01*
X308487D02*
X312819D01*
X310653D01*
Y20250D01*
X308487D01*
X312819D01*
X325815Y33246D02*
X321483D01*
X319317Y31080D01*
Y22416D01*
X321483Y20250D01*
X325815D01*
X327981Y22416D01*
Y31080D01*
X325815Y33246D01*
X70500Y34750D02*
X57504D01*
Y41248D01*
X59670Y43414D01*
X64002D01*
X66168Y41248D01*
Y34750D01*
X57504Y47746D02*
X70500D01*
X66168Y52078D01*
X70500Y56410D01*
X57504D01*
X70500Y60742D02*
X57504D01*
Y67239D01*
X59670Y69405D01*
X64002D01*
X66168Y67239D01*
Y60742D01*
Y65074D02*
X70500Y69405D01*
X274664Y80246D02*
X270332D01*
X272498D01*
Y69416D01*
X270332Y67250D01*
X268166D01*
X266000Y69416D01*
X278996Y80246D02*
X287660D01*
X283328D01*
Y67250D01*
X291992D02*
Y75914D01*
X296324Y80246D01*
X300655Y75914D01*
Y67250D01*
Y73748D01*
X291992D01*
X313651Y78080D02*
X311485Y80246D01*
X307153D01*
X304987Y78080D01*
Y69416D01*
X307153Y67250D01*
X311485D01*
X313651Y69416D01*
Y73748D01*
X309319D01*
D12*
X917360Y197591D02*
G03*
X917360Y197591I-2540J0D01*
G01*
X1117610Y197840D02*
G03*
X1117610Y197840I-2540J0D01*
G01*
D13*
X918250Y870500D02*
Y871000D01*
X992250Y870500D02*
Y871500D01*
X988000Y766250D02*
Y784250D01*
X888000Y766250D02*
Y784250D01*
X988000D01*
X888000Y766250D02*
X988000D01*
X704450Y321400D02*
Y702400D01*
X679050Y340450D02*
Y702400D01*
Y321400D02*
Y340450D01*
Y321400D02*
X704450D01*
X679050Y702400D02*
X704450D01*
X1266700Y658901D02*
Y709701D01*
X1215900D02*
X1266700D01*
X1215900Y658901D02*
X1266700D01*
X1215900D02*
Y709701D01*
X176550Y125300D02*
X557550D01*
X195600Y150700D02*
X557550D01*
X176550D02*
X195600D01*
X176550Y125300D02*
Y150700D01*
X557550Y125300D02*
Y150700D01*
X590050Y11800D02*
Y37200D01*
X336050Y11800D02*
X590050D01*
X336050D02*
Y37200D01*
X355100D01*
X590050D01*
X259450Y670300D02*
Y721100D01*
X488050Y670300D02*
Y721100D01*
X259450Y670300D02*
X488050D01*
X259450Y721100D02*
X488050D01*
X41550Y295800D02*
Y530750D01*
X92350Y295800D02*
Y530750D01*
Y549800D01*
X41550D02*
X92350D01*
X41550Y530750D02*
Y549800D01*
Y295800D02*
X92350D01*
X329450Y101350D02*
X564400D01*
X329450Y50550D02*
X564400D01*
X583450D01*
Y101350D01*
X564400D02*
X583450D01*
X329450Y50550D02*
Y101350D01*
X87500Y158750D02*
Y167750D01*
X57500Y158750D02*
Y167750D01*
X87500D01*
X57500Y158750D02*
X87500D01*
X170500Y33250D02*
Y33750D01*
X96500Y32750D02*
Y33750D01*
X677250Y109251D02*
Y126751D01*
X608750D02*
X677250D01*
X608750Y109501D02*
Y126751D01*
X765500Y109001D02*
Y126501D01*
X697000D02*
X765500D01*
X697000Y109251D02*
Y126501D01*
X15749Y415250D02*
Y450502D01*
X471749Y105250D02*
X587749D01*
Y46750D02*
Y105250D01*
X325749Y46750D02*
Y105250D01*
X325999Y46750D02*
X587749D01*
X1215900Y379651D02*
X1266700D01*
X1215900Y481251D02*
X1266700D01*
Y379651D02*
Y481251D01*
X1215900Y379651D02*
Y481251D01*
X584250Y760250D02*
Y778250D01*
X534250Y760250D02*
Y778250D01*
X584250D01*
X534250Y760250D02*
X584250D01*
X595820Y822650D02*
Y898251D01*
X518350Y822650D02*
Y898251D01*
X595820D01*
X518350Y822650D02*
X595820D01*
X170000Y748250D02*
Y766250D01*
X120000Y748250D02*
Y766250D01*
X170000D01*
X120000Y748250D02*
X170000D01*
X179920Y821400D02*
Y897001D01*
X102450Y821400D02*
Y897001D01*
X179920D01*
X102450Y821400D02*
X179920D01*
X471749Y102000D02*
Y105250D01*
X325999D02*
X444999D01*
Y101600D02*
Y105250D01*
X150499Y601250D02*
X157749D01*
X150499Y596500D02*
Y601250D01*
X151499Y170500D02*
Y188500D01*
X574749Y170000D02*
Y182251D01*
X540249Y601000D02*
X545499D01*
Y597250D02*
Y601000D01*
X151499Y170500D02*
X154999D01*
X564500Y170000D02*
X574749D01*
X75750Y214000D02*
X78250D01*
X75750Y186500D02*
X78500D01*
D14*
X1030000Y777750D02*
X1042250D01*
X1030500Y800750D02*
X1042250D01*
X999750Y777750D02*
X1012000D01*
X999750Y800750D02*
X1011750D01*
X110682Y272750D02*
X111682D01*
X110682Y282500D02*
X111682D01*
X115750Y454250D02*
X116750D01*
X115750Y464000D02*
X116750D01*
X100750Y140750D02*
Y141750D01*
X110500Y140750D02*
Y141750D01*
X111000Y118250D02*
X123250D01*
X111000Y95250D02*
X122750D01*
X141250Y118250D02*
X153500D01*
X141500Y95250D02*
X153500D01*
X747250Y206500D02*
X747250Y207250D01*
X762000Y206500D02*
Y207000D01*
X100500Y168750D02*
Y169750D01*
X110250Y168750D02*
Y169750D01*
X604500Y70750D02*
Y71750D01*
X594750Y70750D02*
Y71750D01*
X296750Y111500D02*
X297750D01*
X296750Y101750D02*
X297750D01*
X109250Y755000D02*
Y756000D01*
X99500Y755000D02*
Y756000D01*
X528500Y778250D02*
Y779250D01*
X518750Y778250D02*
Y779250D01*
X143250Y797750D02*
X144250D01*
X143250Y807500D02*
X144250D01*
X558250Y809500D02*
X559250D01*
X558250Y819250D02*
X559250D01*
X766250Y180250D02*
Y192500D01*
X789250Y180250D02*
Y192000D01*
X766250Y210500D02*
Y222750D01*
X789250Y210750D02*
Y222750D01*
X941250Y127750D02*
Y128750D01*
X931500Y127750D02*
Y128750D01*
X956500Y127750D02*
Y128750D01*
X946750Y127750D02*
Y128750D01*
X792750Y134000D02*
Y135000D01*
X783000Y134000D02*
Y135000D01*
X1157750Y129750D02*
Y130750D01*
X1148000Y129750D02*
Y130750D01*
X976500Y127250D02*
Y128250D01*
X966750Y127250D02*
Y128250D01*
X993250Y126750D02*
Y127750D01*
X983500Y126750D02*
Y127750D01*
X1142000Y129000D02*
Y130000D01*
X1132250Y129000D02*
Y130000D01*
X778500Y134250D02*
Y135250D01*
X768750Y134250D02*
Y135250D01*
X1134250Y175750D02*
Y188000D01*
X1157250Y175750D02*
Y187500D01*
X1134250Y206000D02*
Y218250D01*
X1157250Y206250D02*
Y218250D01*
X1162500Y201500D02*
X1162500Y202250D01*
X1177250Y201500D02*
Y202000D01*
X579250Y110000D02*
Y122250D01*
X602250Y110000D02*
Y121750D01*
X579250Y140250D02*
Y152500D01*
X602250Y140500D02*
Y152500D01*
X118478Y478500D02*
Y479500D01*
X128228Y478500D02*
Y479500D01*
X660959Y191000D02*
X673209D01*
X660959Y168000D02*
X672709D01*
X691209Y191000D02*
X703459D01*
X691459Y168000D02*
X703459D01*
X539000Y730000D02*
X551250D01*
X539000Y707000D02*
X550750D01*
X569250Y730000D02*
X581500D01*
X569500Y707000D02*
X581500D01*
X115000Y697000D02*
X127250D01*
X115000Y674000D02*
X126750Y674000D01*
X145250Y697000D02*
X157500Y697000D01*
X145500Y674000D02*
X157500D01*
X85250Y220250D02*
X97250D01*
X85000Y243250D02*
X97250D01*
X54750Y220250D02*
X66500D01*
X54750Y243250D02*
X67000D01*
X50000Y139000D02*
X62000Y139000D01*
X50000Y116000D02*
X62250Y116000D01*
X80750Y139000D02*
X92500D01*
X80250Y116000D02*
X92500D01*
X124750Y258500D02*
X125750D01*
X124750Y268250D02*
X125750D01*
D15*
X1042250Y777750D02*
Y800750D01*
X999750Y777750D02*
Y800750D01*
X111000Y95250D02*
Y118250D01*
X153500Y95250D02*
Y118250D01*
X799250Y206481D02*
X926250D01*
X799250Y145521D02*
X926250D01*
X766250Y180250D02*
X789250D01*
X766250Y222750D02*
X789250D01*
X999500Y206730D02*
X1126500Y206730D01*
X999500Y145770D02*
X1126500Y145770D01*
X1134250Y175750D02*
X1157250D01*
X1134250Y218250D02*
X1157250D01*
X579250Y110000D02*
X602250D01*
X579250Y152500D02*
X602250D01*
X660959Y168000D02*
Y191000D01*
X703459Y168000D02*
Y191000D01*
X539000Y707000D02*
Y730000D01*
X581500Y707000D02*
Y730000D01*
X115000Y697000D02*
X115000Y674000D01*
X157500D02*
Y697000D01*
X97250Y220250D02*
Y243250D01*
X54750Y220250D02*
Y243250D01*
X50000Y116000D02*
Y139000D01*
X92500Y139000D02*
X92500Y116000D01*
D16*
X879250Y773000D02*
Y780500D01*
X865500D02*
X879250D01*
X865250Y773000D02*
Y780500D01*
Y755500D02*
Y763000D01*
Y755500D02*
X879250D01*
Y763000D01*
X706500Y128500D02*
X715390D01*
X703380Y142305D02*
Y151195D01*
X718620Y142305D02*
Y151195D01*
X632250Y130500D02*
X641140D01*
X629130Y144305D02*
Y153195D01*
X644370Y144305D02*
Y153195D01*
X675000Y132000D02*
X683890D01*
X671880Y145805D02*
Y154695D01*
X687120Y145805D02*
Y154695D01*
X748250Y129500D02*
X757140D01*
X745130Y143305D02*
Y152195D01*
X760370Y143305D02*
Y152195D01*
X606500Y140250D02*
Y147750D01*
Y140250D02*
X620250D01*
X620500D02*
Y147750D01*
Y157750D02*
Y165250D01*
X606500D02*
X620500D01*
X606500Y157750D02*
Y165250D01*
X686500Y194000D02*
X694000D01*
Y207750D01*
X686500Y208000D02*
X694000D01*
X669000D02*
X676500D01*
X669000Y194000D02*
Y208000D01*
Y194000D02*
X676500D01*
X129000Y174750D02*
Y182250D01*
X115250D02*
X129000D01*
X115000Y174750D02*
Y182250D01*
Y157250D02*
Y164750D01*
Y157250D02*
X129000D01*
Y164750D01*
X804360Y754250D02*
X813250D01*
X816370Y731555D02*
Y740445D01*
X801130Y731555D02*
Y740445D01*
X765610Y754000D02*
X774500D01*
X777620Y731305D02*
Y740195D01*
X762380Y731305D02*
Y740195D01*
X784610Y754500D02*
X793500D01*
X796620Y731805D02*
Y740695D01*
X781380Y731805D02*
Y740695D01*
X745360Y755000D02*
X754250D01*
X757370Y732305D02*
Y741195D01*
X742130Y732305D02*
Y741195D01*
X640860Y752500D02*
X649750D01*
X652870Y729805D02*
Y738695D01*
X637630Y729805D02*
Y738695D01*
X662110Y752750D02*
X671000D01*
X674120Y730055D02*
Y738945D01*
X658880Y730055D02*
Y738945D01*
X702360Y753750D02*
X711250D01*
X714370Y731055D02*
Y739945D01*
X699130Y731055D02*
Y739945D01*
X149250Y702000D02*
X156750D01*
Y715750D01*
X149250Y716000D02*
X156750D01*
X131750D02*
X139250D01*
X131750Y702000D02*
Y716000D01*
Y702000D02*
X139250D01*
X566249Y691250D02*
X573749D01*
Y705000D01*
X566249Y705250D02*
X573749D01*
X548749D02*
X556249D01*
X548749Y691250D02*
Y705250D01*
Y691250D02*
X556249D01*
X799250Y145521D02*
Y206481D01*
X926250Y145521D02*
Y206481D01*
X928750Y142250D02*
Y149750D01*
Y142250D02*
X942500D01*
X942750D02*
Y149750D01*
Y159750D02*
Y167250D01*
X928750D02*
X942750D01*
X928750Y159750D02*
Y167250D01*
X944750Y142250D02*
Y149750D01*
Y142250D02*
X958500D01*
X958750D02*
Y149750D01*
Y159750D02*
Y167250D01*
X944750D02*
X958750D01*
X944750Y159750D02*
Y167250D01*
X780750Y148750D02*
Y156250D01*
Y148750D02*
X794500D01*
X794750D02*
Y156250D01*
Y166250D02*
Y173750D01*
X780750D02*
X794750D01*
X780750Y166250D02*
Y173750D01*
X1146250Y144000D02*
Y151500D01*
Y144000D02*
X1160000D01*
X1160250D02*
Y151500D01*
Y161500D02*
Y169000D01*
X1146250D02*
X1160250D01*
X1146250Y161500D02*
Y169000D01*
X964000Y142250D02*
Y149750D01*
Y142250D02*
X977750D01*
X978000D02*
Y149750D01*
Y159750D02*
Y167250D01*
X964000D02*
X978000D01*
X964000Y159750D02*
Y167250D01*
X765250Y148250D02*
Y155750D01*
Y148250D02*
X779000D01*
X779250D02*
Y155750D01*
Y165750D02*
Y173250D01*
X765250D02*
X779250D01*
X765250Y165750D02*
Y173250D01*
X981250Y142000D02*
Y149500D01*
Y142000D02*
X995000D01*
X995250D02*
Y149500D01*
Y159500D02*
Y167000D01*
X981250D02*
X995250D01*
X981250Y159500D02*
Y167000D01*
X1129750Y143500D02*
Y151000D01*
Y143500D02*
X1143500D01*
X1143750D02*
Y151000D01*
Y161000D02*
Y168500D01*
X1129750D02*
X1143750D01*
X1129750Y161000D02*
Y168500D01*
X999500Y206730D02*
X999500Y145770D01*
X1126500Y206730D02*
X1126500Y145770D01*
X268679Y436530D02*
Y576530D01*
X348679Y436530D02*
Y576530D01*
X268679Y436530D02*
X348679D01*
X268679Y576530D02*
X348679D01*
X806250Y197248D02*
X812915D01*
X809582D01*
Y187251D01*
X821245D02*
Y197248D01*
X816247Y192250D01*
X822911D01*
D17*
X969750Y-2250D02*
Y113750D01*
X1121750D01*
Y-3250D02*
Y113750D01*
X789500Y-2249D02*
Y113750D01*
X941500D01*
Y-3249D02*
Y113750D01*
X74570Y554036D02*
Y562500D01*
X83034Y554036D01*
X85150D01*
X87266Y556152D01*
Y560384D01*
X85150Y562500D01*
X49170D02*
Y558268D01*
Y560384D01*
X61866D01*
X59750Y562500D01*
X49170Y293260D02*
Y289028D01*
Y291144D01*
X61866D01*
X59750Y293260D01*
X51286Y282680D02*
X49170Y280564D01*
Y276332D01*
X51286Y274216D01*
X59750D01*
X61866Y276332D01*
Y280564D01*
X59750Y282680D01*
X57634D01*
X55518Y280564D01*
Y274216D01*
X74570Y284796D02*
Y293260D01*
X83034Y284796D01*
X85150D01*
X87266Y286912D01*
Y291144D01*
X85150Y293260D01*
Y280564D02*
X87266Y278448D01*
Y274216D01*
X85150Y272100D01*
X76686D01*
X74570Y274216D01*
Y278448D01*
X76686Y280564D01*
X85150D01*
D18*
X906692Y233532D02*
X907962D01*
X906438Y234294D02*
X909232D01*
X905930Y235056D02*
X909740D01*
X905168Y236072D02*
X910248D01*
X903898Y237088D02*
X905168D01*
X903898D02*
X907708Y230738D01*
X911518Y237088D01*
X903898D02*
X911518D01*
X1106942Y233781D02*
X1108212Y233781D01*
X1106688Y234543D02*
X1109482D01*
X1106180Y235305D02*
X1109990D01*
X1105418Y236321D02*
X1110498D01*
X1104148Y237337D02*
X1105418Y237337D01*
X1104148Y237337D02*
X1107958Y230987D01*
X1111768Y237337D01*
X1104148D02*
X1111768D01*
D19*
X1032407Y888946D02*
X1029867Y891485D01*
X1024789D01*
X1022250Y888946D01*
Y878789D01*
X1024789Y876250D01*
X1029867D01*
X1032407Y878789D01*
X1045103Y891485D02*
X1040024D01*
X1037485Y888946D01*
Y878789D01*
X1040024Y876250D01*
X1045103D01*
X1047642Y878789D01*
Y888946D01*
X1045103Y891485D01*
X1052720Y876250D02*
Y891485D01*
X1062877Y876250D01*
Y891485D01*
X1078112Y888946D02*
X1075573Y891485D01*
X1070494D01*
X1067955Y888946D01*
Y886407D01*
X1070494Y883867D01*
X1075573D01*
X1078112Y881328D01*
Y878789D01*
X1075573Y876250D01*
X1070494D01*
X1067955Y878789D01*
X1090808Y891485D02*
X1085730D01*
X1083190Y888946D01*
Y878789D01*
X1085730Y876250D01*
X1090808D01*
X1093347Y878789D01*
Y888946D01*
X1090808Y891485D01*
X1098425D02*
Y876250D01*
X1108582D01*
X1123817Y891485D02*
X1113660D01*
Y876250D01*
X1123817D01*
X1113660Y883867D02*
X1118739D01*
M02*
