M48
;Layer_Color=9474304
;FILE_FORMAT=4:4
METRIC,LZ
;TYPE=PLATED
T1F00S00C0.2540
T2F00S00C0.3000
T3F00S00C0.4000
T4F00S00C0.6000
T5F00S00C0.9000
T7F00S00C1.0000
T8F00S00C1.1000
T9F00S00C1.2000
%
T01
X00462Y0060944
X004685
X0039955Y0073075
T02
X0004275Y000965
X00077Y0025725
X00104182Y0027775
X00101Y004505
X00093Y0044725
X0012325Y0045925
X00123364Y00471886
X00167Y00487986
X00176Y00488
X000095Y004435
Y004355
X00180117Y006965
X00198029Y007135
X00202749Y007235
X003235Y0065975
X0036025Y00641115
X003755Y0064125
X00390249Y00641499
X00371499Y0057775
X00343749Y00578
X00324749Y0057325
X00415999Y005775
X00463749Y00578
X00490249Y0057213
X00581249Y00621826
X0057475Y0071275
X0057475Y0072375
X005455Y007185
X009215Y0064625
X0092325Y0063625
X0094025Y00543
X009485Y0054275
X00828999Y0074125
X0073975Y00814
X0066075Y0078825
X0080775Y0089125
T03
X01065Y000085
X0104775Y0006225
X0109725Y0006525
X0108325Y00088549
X010975Y0011725
X0111825
X01124Y000925
X011615Y0010575
X011685Y0014208
X011695Y0017875
X01192Y001935
X0119675Y002175
X0114475Y0019575
X0113725Y0016225
X0112375Y00218601
X0109475Y002188
X010815Y002325
X0108075Y0024425
X0104875Y0027924
X01055826Y0030075
X01011Y0024125
X0101875Y0021925
X0103125Y002188
X010315Y0012045
X010075Y0012025
X010205Y000905
X0116125Y0000875
X0126725Y001405
X01268559Y002195
X01265Y002705
X011585Y0027175
X0097025Y0027924
X0098825Y00161
X0093575Y0016125
X009185Y00118
X00925141Y00107554
X008985Y0011825
X0090375Y00087609
X00823Y0009075
X0082875Y0011475
X0080825Y00114
X00806279Y0012275
X00787672Y00117372
X00767148Y0011775
X00747Y00106
X007475Y0008112
X00771953Y000785
X0081425Y00067
X00753Y0004175
X007255Y0005125
X00730079Y0002425
X00704679Y0003625
X00666318Y00036958
X00646Y00053
X00659186Y0008175
X00687Y00079271
X0069775Y001135
X0067425Y0011325
X0066625Y0012684
X00686706Y001325
X00673Y0014625
X0068575Y001624
X00684359Y0017425
Y00188
X00664Y0019475
X0065425Y0018325
X006375Y00168251
X0064175Y0014716
X00612516Y0016875
X006515Y00219
X006685Y0022336
X00719919Y0022275
X0074Y00210617
X0076775Y0019975
X0076125Y0017675
X007935Y0017875
X0078775Y0016775
X00806279Y00218896
X00831Y00218552
X008945
X00983Y001045
X00982258Y00008
X0086425Y00009
X0075775
X0063325Y00008
X00614971Y000395
X0062425Y0008175
X0071125Y0019475
X0065375Y003255
X0060675Y0032575
X005905Y00302
X0055525Y0031275
X005555Y0032225
X00546266Y003055
X00513304
X0048575Y003255
X004595Y0030575
X00477382Y002565
X00511Y0025625
X0049725Y002425
X0049425Y002195
X00518015Y002155
X005235Y0019796
X0052725Y001567
X005105Y00151
X005Y001515
X00488Y0015125
X0047675Y001505
X00467598Y00216736
X00450452Y0024175
X00417515Y0027275
X00394Y0026275
X00422Y0019875
X003335Y0021575
X00316268Y0019796
X0031925Y0024175
X00304499Y00279
X002025Y0026325
X00205Y002495
X002115Y0020475
X00242399Y0022
X00247Y0015425
X00237Y001545
X0022625Y00154599
X0022825Y0014675
X0021325Y00153
X002045Y00125083
X002415Y00109
X0025775Y00095
X0028Y00108
X0034575Y001535
X00329Y0000775
X0048525Y00048
X00567Y00007
X00572892Y00117617
X005655Y001305
X0056Y00137
X00569Y001655
X0055925Y00211
X0054425Y0022775
X0053175Y0024225
X0053975Y002605
X005495Y0025425
X00555Y0024625
X0059225Y002305
X0019025Y002135
X00175Y00198
X0016775Y001878
X0015775Y00188
X0015725Y0017725
X0014725
X0013325Y0018325
X00118516Y00176
X001045Y001945
X00103Y002455
X0011825Y0026325
X0013475Y00239
X0016775Y0017725
X0018275Y00186
X002Y001535
X0019875Y0010965
X002Y0007096
X00180187Y000505
X001575Y00071067
X00166199Y00125
X0011925Y00143
X000955Y0014025
X00096Y001255
X00058395Y0008675
X00008079Y0009675
X00089999Y0004556
X0011Y0001
X00159284
X00059Y0001075
X00037Y003035
Y00314
X00097Y0030375
X001985Y00279
X001975Y00444044
X00179625Y00457875
X00165Y00458
X001705Y00478
X00169Y0049675
X00166986Y00526
X00092Y0056575
X00052061Y005575
X000205Y0059525
Y00606
X0002275Y00625
X0000925Y0064275
X0002025Y006565
X0007965Y006745
X0009Y00628
X00149Y0063075
X001495Y0066025
X0015775Y006655
X0013425Y006715
X00150625Y00708875
X0019Y006825
X0019675Y0067575
X0019225Y006467
X0018225Y0063075
X00225318Y00643413
X00226016Y0067975
X0022Y006915
X002095Y0069075
X00203Y006705
X00238Y006975
X00263Y00642738
X0029875Y006425
X00346044Y006415
X0035525Y006095
X0043925
X005105Y006085
X00527728Y0060825
X0052925Y0059825
X0053875Y00606002
X0054425Y00642552
X0055675Y006425
X005325Y006465
X0052475Y0066075
X005425Y006945
X005905Y0060944
X005935Y0057575
X0059325Y00565
X0059375Y0055475
X005945Y005415
Y004875
X005515Y004915
X0051075Y0047825
X00511639Y003745
X00497702Y00366542
X004865Y0035225
X0052Y0034925
X005295Y0035075
X0053625Y0035975
X0053675Y0036925
X00558
Y0035975
X00555Y003445
Y00336
X00546Y003515
X00535516Y0032825
X0043075Y0040775
X00389Y00419875
X0038525Y00454
X0037825Y0049625
X0036225Y0048375
X0035375Y00491
X0034775Y004975
X0033575Y00502
X00344892Y0052625
X003775Y005265
X0038625Y0051875
X00395741Y0050925
X0039625Y00529484
X00368846Y0053525
X0036125Y004085
X003335Y003585
X0061Y00346222
X006065Y0033425
X0062525Y0035975
X006375Y0035925
X0063575Y00369126
X006545Y004
X00653879Y0044525
X006545Y0048175
X00673598Y00488
X00648799Y005015
X00654Y0054925
X0064625Y00555
X00644Y005745
X0064975Y0058175
X00653Y0059375
X00665Y00611
Y0066575
X006315Y00673443
X00639212Y0069525
X0065475Y007212
X00706346Y00671884
X007215Y00655485
X0071375Y0062775
X00711342Y00588
X00747Y0058625
X00749859Y00593997
X0074675Y0053825
Y00527175
X007145Y00538
X00799269Y005395
X00902Y0053875
X0092375
X0091725Y0053225
X0094075Y00524
X00919Y00472
X0091425Y0041525
X0090725Y0033275
X008225Y0041925
X008125Y004485
X008615Y00496
X00878Y005885
X0093Y006075
Y00618
X009775Y006355
X00766734Y0066975
Y006795
X00747492Y00702
X00709Y004494
X0072075Y0042148
X0073625Y0033125
X00675598Y00337212
X006535Y0033525
X01081028Y0035425
X0117525Y003545
X0126975Y00353
X0125175Y004875
X01246079Y0054675
X0127025Y0054575
X01198Y0054025
X0117175Y0053725
X0111175Y00536467
X01106Y00555
X0105125Y00528
X010285Y004695
X011445Y004455
X011475Y0049375
X01109Y0063625
X01122Y0071104
X01053Y0071396
X0102475Y007055
X010055Y007195
X01243159Y00631
X012695Y0065
X0126675Y007405
X01213Y00741
Y0079875
X01238544Y00857
X0126675Y0088975
X0107075Y0085425
X0106675Y007965
X01020341Y0074675
X0100225Y0089475
X0097325Y0089075
X009575Y0085125
X0082275Y0079125
X00784Y0076475
X007765Y00754
X00760559Y0076025
X0076525Y0073525
X007935Y00731962
X0072775Y007245
X00686706Y0074525
X006945Y0077125
X0073975Y0077825
X007605Y0079775
X0073375Y0083175
X007265Y00839
X00674199Y0084025
X00736Y0088884
X005865Y008895
X0051975Y0088775
X0050575Y0076975
X0051175Y00747
X0052875Y007405
X005656Y0074525
X0056575Y0076825
X0055475
X0058875Y0077975
X00416Y0077175
X0042625Y00746
X0033725
X003145Y0074775
X003375Y00771
X0028Y0077475
X0023475Y0074575
X0033525Y0089175
X0037214Y0089075
X001025Y008885
X00011Y0089025
Y0080325
X0014Y007595
X0015125
X0015135Y0073175
X0018325Y00772629
T04
X00621Y00114501
X00635
X00649
X00663
X0070925Y00114251
X0072325
X0073725
X0075125
T05
X0101Y00078
X010304
X010508
X010712
X010814Y001034
X01061
X010406
X010202
X0090115Y00103401
X0088075
X0086035
X0083995
X0082975Y00078001
X0085015
X0087055
X0089095
X0057075Y0008865
X0054535
X0051995
X0049455
X0046915
X0044375
X0041835
X0039295
X0036755
X0034215
Y0006325
X0036755
X0039295
X0041835
X0044375
X0046915
X0049455
X0051995
X0054535
X0057075
X0057735Y000245
X0055195
X0052655
X0050115
X0047575
X0045035
X0042495
X0039955
X0037415
X0034875
X0034165Y00138
X0036705
X0039245
X0041785
X0044325
X0046865
X0049405
X0051945
X0054485
X0031625
X0029085
X0026545
X0024005
X0021465
X0018925
X001555Y000485
X001115
X0007965Y003085
X0005425
Y003339
X0007965
Y003593
X0005425
Y003847
X0007965
Y004101
X0005425
Y004355
X0007965
Y004609
X0005425
Y004863
X0007965
Y005117
X0005425
Y005371
X0007965
X0027215Y00683
X0029755
Y007084
X0032295
Y00683
X0034835Y00683
X0037375
Y007084
X0039915
Y00683
X0042455Y00683
X0044995
X0047535
Y007084
X0044995
X0042455
X0034835
X0027215
X0069175Y006897
Y006643
Y006389
Y006135
Y005881
Y005627
Y005373
Y005119
Y004865
Y004611
Y004357
Y004103
Y003849
Y003595
Y003341
X0093325Y0085575
X0097725
T07
X0069875Y0088825
X0077875
T08
X012286Y00392351
Y00417751
X01254Y00417751
Y00392351
X01254Y00443151
Y00468551
X012286
Y00443151
Y00671601
X01254
Y00697001
X012286
T09
X005374Y0086075
X005755
X001596Y008595
X001215
M30
